<?xml version="1.0" encoding="UTF-8" standalone="no"?>
<!DOCTYPE svg PUBLIC "-//W3C//DTD SVG 1.1//EN" >
<svg height="100%" stroke-miterlimit="10" style="fill-rule:nonzero;clip-rule:evenodd;stroke-linecap:round;stroke-linejoin:round;" version="1.1" viewBox="0 0 841.995 595.35" width="100%" xml:space="preserve" xmlns="http://www.w3.org/2000/svg" xmlns:vectornator="http://vectornator.io" xmlns:xlink="http://www.w3.org/1999/xlink">
<defs/>
<clipPath id="ArtboardFrame">
<rect height="595.35" width="841.995" x="0" y="0"/>
</clipPath>
<g clip-path="url(#ArtboardFrame)" id="Layer-1" >
<g opacity="1" >
<path d="M690.469 201.438C651.189 204.177 612.188 209.601 573.188 214.875C556.565 217.123 539.928 219.254 523.281 221.312C447.744 230.656 371.966 239.069 297.594 255.719C259.443 264.26 221.967 275.351 184.469 286.344C170.353 290.482 156.169 294.407 142.031 298.469C135.743 294.38 118.192 310.18 102.844 333.781C87.4956 357.383 80.1493 379.848 86.4375 383.938C112.814 374.783 138.955 364.895 165.281 355.594C192.771 345.881 220.474 336.8 248.562 328.969C325.909 307.403 405.336 294.599 484.375 281.062C500.73 278.261 517.051 275.385 533.375 272.406C573.529 265.079 613.669 257.575 654.219 252.75C657.994 255.416 669.18 246.106 679.188 231.938C689.195 217.769 694.244 204.104 690.469 201.438Z" fill="#497174" stroke="none"/>
</g>
<g opacity="1">
<path d="M673.062 176.375C624.457 176.764 575.855 179.142 527.375 182.844C487.679 185.875 448.055 189.688 408.469 193.906C384.096 196.504 359.741 199.308 335.375 201.969C306.415 205.131 277.435 208.317 248.688 213.094C225.538 216.941 202.603 222.064 179.688 227.094C160.5 231.306 141.325 235.776 122.344 240.844C116.959 242.281 111.613 243.766 106.25 245.281C101.836 246.528 97.4013 247.677 93.1562 249.438C87.402 251.824 81.9806 254.967 76.7188 258.281C72.9524 260.654 69.3277 263.237 65.4375 265.406C59.5968 262.267 45.2825 277.484 33.5 299.406C21.7175 321.328 16.9093 341.673 22.75 344.812C27.3292 342.013 31.7668 338.992 36.1562 335.906C38.6527 334.151 41.1056 332.194 43.875 330.875C45.084 330.299 46.3662 329.887 47.625 329.438C49.7125 328.691 51.8107 327.942 53.9062 327.219C60.1448 325.065 66.4012 323.009 72.6875 321C91.2637 315.062 109.991 309.604 128.812 304.5C151.786 298.27 174.783 291.996 198.062 287C226.944 280.801 256.097 276.161 285.281 271.656C336.479 263.754 387.64 255.52 439 248.719C495.053 241.296 551.29 235.143 607.719 231.438C633.272 229.759 658.868 228.652 684.469 228.031C688.247 230.768 699.636 221.495 709.906 207.312C720.177 193.13 725.435 179.424 721.656 176.688C705.449 176.357 689.264 176.245 673.062 176.375Z" fill='#497174' stroke="none"/>
</g>
<g opacity="1">
<path d="M593.688 200.344C587.101 200.608 573.876 212.534 561.875 229.531C548.159 248.957 541.262 267.658 546.438 271.312C551.133 270.553 555.784 269.659 560.469 268.844C566.342 267.822 572.23 266.914 578.125 266.031C594.198 263.624 610.362 261.748 626.531 260.125C635.105 259.264 643.689 258.601 652.281 257.969C666.544 256.919 680.861 256.083 695.156 255.625C724.676 254.678 754.184 255.049 783.688 256.312C786.751 258.583 796.134 251.094 804.656 239.594C813.179 228.094 817.627 216.927 814.562 214.656C802.336 212.725 790.099 210.924 777.812 209.406C753.617 206.418 729.28 204.282 704.938 202.938C678.847 201.496 652.72 201.052 626.594 201C620.564 200.988 614.53 201.026 608.5 200.969C604.362 200.93 600.232 200.873 596.094 200.969C595.447 200.512 594.628 200.306 593.688 200.344Z" fill="#497174" stroke="none"/>
</g>
</g>
</svg>
