<svg width="100%" height="100%" id="svg" viewBox="0 0 1440 490" xmlns="http://www.w3.org/2000/svg" class="transition duration-300 ease-in-out delay-150"><path d="M 0,500 C 0,500 0,166 0,166 C 91.40000000000003,151.48461538461538 182.80000000000007,136.9692307692308 255,133 C 327.19999999999993,129.0307692307692 380.19999999999993,135.60769230769228 448,140 C 515.8000000000001,144.39230769230772 598.4000000000001,146.6 701,167 C 803.5999999999999,187.4 926.1999999999998,225.9923076923077 998,222 C 1069.8000000000002,218.0076923076923 1090.8,171.43076923076924 1156,155 C 1221.2,138.56923076923076 1330.6,152.2846153846154 1440,166 C 1440,166 1440,500 1440,500 Z" stroke="none" stroke-width="0" fill="#497174" fill-opacity="0.53" class="transition-all duration-300 ease-in-out delay-150 path-0" transform="rotate(-180 720 250)"></path><path d="M 0,500 C 0,500 0,333 0,333 C 71.63076923076923,338.4846153846154 143.26153846153846,343.96923076923076 232,344 C 320.73846153846154,344.03076923076924 426.5846153846153,338.60769230769233 515,318 C 603.4153846153847,297.39230769230767 674.4,261.6 750,281 C 825.6,300.4 905.8153846153848,374.9923076923077 972,380 C 1038.1846153846152,385.0076923076923 1090.3384615384616,320.4307692307692 1166,301 C 1241.6615384615384,281.5692307692308 1340.8307692307692,307.2846153846154 1440,333 C 1440,333 1440,500 1440,500 Z" stroke="none" stroke-width="0" fill="#497174" fill-opacity="1" class="transition-all duration-300 ease-in-out delay-150 path-1" transform="rotate(-180 720 250)"></path></svg>
